<mxfile host="app.diagrams.net" modified="2022-07-27T22:11:12.408Z" agent="5.0 (Windows)" etag="hjx21DFjMH1pNGZbhobA" version="20.2.2" type="github">
  <diagram id="7pvFH5eABRikgGRUm6E7" name="PÃ¡gina-1">
    <mxGraphModel dx="981" dy="513" grid="1" gridSize="10" guides="1" tooltips="1" connect="1" arrows="1" fold="1" page="1" pageScale="1" pageWidth="827" pageHeight="1169" math="0" shadow="0">
      <root>
        <mxCell id="0" />
        <mxCell id="1" parent="0" />
        <mxCell id="ETL1VXgx1O7w-E-OJqYP-1" value="Power supply" style="rounded=0;whiteSpace=wrap;html=1;" parent="1" vertex="1">
          <mxGeometry x="284" y="30" width="160" height="60" as="geometry" />
        </mxCell>
        <mxCell id="ETL1VXgx1O7w-E-OJqYP-2" value="&lt;div&gt;Analog&lt;/div&gt;&lt;div&gt;out&lt;br&gt;&lt;/div&gt;" style="rounded=0;whiteSpace=wrap;html=1;" parent="1" vertex="1">
          <mxGeometry x="284" y="120" width="60" height="60" as="geometry" />
        </mxCell>
        <mxCell id="ETL1VXgx1O7w-E-OJqYP-3" value="uC" style="rounded=0;whiteSpace=wrap;html=1;" parent="1" vertex="1">
          <mxGeometry x="384" y="120" width="60" height="60" as="geometry" />
        </mxCell>
        <mxCell id="ETL1VXgx1O7w-E-OJqYP-4" value="HMI" style="rounded=0;whiteSpace=wrap;html=1;" parent="1" vertex="1">
          <mxGeometry x="484" y="120" width="60" height="60" as="geometry" />
        </mxCell>
        <mxCell id="ETL1VXgx1O7w-E-OJqYP-5" value="" style="shape=flexArrow;endArrow=classic;startArrow=classic;html=1;rounded=0;exitX=1;exitY=0.5;exitDx=0;exitDy=0;endWidth=5.6;endSize=2.868;startWidth=5.6;startSize=2.868;width=5.6;" parent="1" source="ETL1VXgx1O7w-E-OJqYP-3" edge="1">
          <mxGeometry width="100" height="100" relative="1" as="geometry">
            <mxPoint x="384" y="250" as="sourcePoint" />
            <mxPoint x="484" y="150" as="targetPoint" />
          </mxGeometry>
        </mxCell>
        <mxCell id="ETL1VXgx1O7w-E-OJqYP-6" value="" style="shape=flexArrow;endArrow=classic;html=1;rounded=0;exitX=0;exitY=0.5;exitDx=0;exitDy=0;endWidth=7.840000000000001;endSize=2.732;width=6.4;" parent="1" source="ETL1VXgx1O7w-E-OJqYP-3" edge="1">
          <mxGeometry width="50" height="50" relative="1" as="geometry">
            <mxPoint x="294" y="200" as="sourcePoint" />
            <mxPoint x="344" y="150" as="targetPoint" />
          </mxGeometry>
        </mxCell>
        <mxCell id="ETL1VXgx1O7w-E-OJqYP-10" value="" style="endArrow=classic;html=1;rounded=0;entryX=0.158;entryY=-0.027;entryDx=0;entryDy=0;entryPerimeter=0;" parent="1" edge="1">
          <mxGeometry width="50" height="50" relative="1" as="geometry">
            <mxPoint x="324.52" y="90" as="sourcePoint" />
            <mxPoint x="323.99999999999994" y="118.38" as="targetPoint" />
            <Array as="points">
              <mxPoint x="324.52" y="90" />
            </Array>
          </mxGeometry>
        </mxCell>
        <mxCell id="ETL1VXgx1O7w-E-OJqYP-11" value="" style="endArrow=classic;html=1;rounded=0;entryX=0.158;entryY=-0.027;entryDx=0;entryDy=0;entryPerimeter=0;" parent="1" edge="1">
          <mxGeometry width="50" height="50" relative="1" as="geometry">
            <mxPoint x="304.52" y="90" as="sourcePoint" />
            <mxPoint x="303.99999999999994" y="118.38" as="targetPoint" />
            <Array as="points">
              <mxPoint x="304.52" y="90" />
            </Array>
          </mxGeometry>
        </mxCell>
        <mxCell id="ETL1VXgx1O7w-E-OJqYP-12" value="" style="endArrow=classic;html=1;rounded=0;entryX=0.158;entryY=-0.027;entryDx=0;entryDy=0;entryPerimeter=0;" parent="1" edge="1">
          <mxGeometry width="50" height="50" relative="1" as="geometry">
            <mxPoint x="414.26" y="90" as="sourcePoint" />
            <mxPoint x="413.73999999999995" y="118.38" as="targetPoint" />
            <Array as="points">
              <mxPoint x="414.26" y="90" />
            </Array>
          </mxGeometry>
        </mxCell>
        <mxCell id="hddoIIIZTjqqpR7IFEJA-2" value="" style="rounded=0;whiteSpace=wrap;html=1;fillColor=none;dashed=1;dashPattern=1 1;" vertex="1" parent="1">
          <mxGeometry x="274" y="20" width="280" height="170" as="geometry" />
        </mxCell>
        <mxCell id="hddoIIIZTjqqpR7IFEJA-27" style="edgeStyle=orthogonalEdgeStyle;rounded=0;orthogonalLoop=1;jettySize=auto;html=1;exitX=0.75;exitY=0;exitDx=0;exitDy=0;entryX=0.5;entryY=0;entryDx=0;entryDy=0;" edge="1" parent="1" source="hddoIIIZTjqqpR7IFEJA-4" target="hddoIIIZTjqqpR7IFEJA-12">
          <mxGeometry relative="1" as="geometry" />
        </mxCell>
        <mxCell id="hddoIIIZTjqqpR7IFEJA-29" style="edgeStyle=orthogonalEdgeStyle;rounded=1;orthogonalLoop=1;jettySize=auto;html=1;exitX=0.75;exitY=0;exitDx=0;exitDy=0;entryX=0.5;entryY=0;entryDx=0;entryDy=0;" edge="1" parent="1" source="hddoIIIZTjqqpR7IFEJA-4" target="hddoIIIZTjqqpR7IFEJA-12">
          <mxGeometry relative="1" as="geometry" />
        </mxCell>
        <mxCell id="hddoIIIZTjqqpR7IFEJA-37" style="edgeStyle=orthogonalEdgeStyle;rounded=1;orthogonalLoop=1;jettySize=auto;html=1;exitX=0.75;exitY=1;exitDx=0;exitDy=0;targetPerimeterSpacing=0;entryX=0.5;entryY=0;entryDx=0;entryDy=0;" edge="1" parent="1" source="hddoIIIZTjqqpR7IFEJA-4" target="hddoIIIZTjqqpR7IFEJA-38">
          <mxGeometry relative="1" as="geometry">
            <mxPoint x="442.5" y="470" as="targetPoint" />
            <Array as="points">
              <mxPoint x="260" y="450" />
              <mxPoint x="411" y="450" />
            </Array>
          </mxGeometry>
        </mxCell>
        <mxCell id="hddoIIIZTjqqpR7IFEJA-4" value="" style="rounded=0;whiteSpace=wrap;html=1;strokeColor=default;fillColor=default;" vertex="1" parent="1">
          <mxGeometry x="72.5" y="260" width="250" height="160" as="geometry" />
        </mxCell>
        <mxCell id="hddoIIIZTjqqpR7IFEJA-24" style="edgeStyle=orthogonalEdgeStyle;rounded=0;orthogonalLoop=1;jettySize=auto;html=1;exitX=0.5;exitY=1;exitDx=0;exitDy=0;entryX=0.15;entryY=1;entryDx=0;entryDy=0;entryPerimeter=0;endArrow=none;endFill=0;" edge="1" parent="1" source="hddoIIIZTjqqpR7IFEJA-5" target="hddoIIIZTjqqpR7IFEJA-4">
          <mxGeometry relative="1" as="geometry" />
        </mxCell>
        <mxCell id="hddoIIIZTjqqpR7IFEJA-5" value="&lt;div&gt;V+ &lt;br&gt;&lt;/div&gt;&lt;div&gt;(12V)&lt;/div&gt;" style="whiteSpace=wrap;html=1;aspect=fixed;strokeColor=default;fillColor=default;" vertex="1" parent="1">
          <mxGeometry x="87.5" y="360" width="45" height="45" as="geometry" />
        </mxCell>
        <mxCell id="hddoIIIZTjqqpR7IFEJA-25" style="edgeStyle=orthogonalEdgeStyle;rounded=0;orthogonalLoop=1;jettySize=auto;html=1;exitX=0.5;exitY=1;exitDx=0;exitDy=0;entryX=0.388;entryY=1.004;entryDx=0;entryDy=0;entryPerimeter=0;endArrow=none;endFill=0;" edge="1" parent="1" source="hddoIIIZTjqqpR7IFEJA-6" target="hddoIIIZTjqqpR7IFEJA-4">
          <mxGeometry relative="1" as="geometry" />
        </mxCell>
        <mxCell id="hddoIIIZTjqqpR7IFEJA-6" value="&lt;div&gt;V - &lt;br&gt;&lt;/div&gt;&lt;div&gt;(-12V)&lt;/div&gt;" style="whiteSpace=wrap;html=1;aspect=fixed;strokeColor=default;fillColor=default;" vertex="1" parent="1">
          <mxGeometry x="147.5" y="360" width="45" height="45" as="geometry" />
        </mxCell>
        <mxCell id="hddoIIIZTjqqpR7IFEJA-19" style="edgeStyle=orthogonalEdgeStyle;rounded=0;orthogonalLoop=1;jettySize=auto;html=1;exitX=0.75;exitY=1;exitDx=0;exitDy=0;entryX=0.5;entryY=0;entryDx=0;entryDy=0;" edge="1" parent="1" source="hddoIIIZTjqqpR7IFEJA-11" target="hddoIIIZTjqqpR7IFEJA-6">
          <mxGeometry relative="1" as="geometry" />
        </mxCell>
        <mxCell id="hddoIIIZTjqqpR7IFEJA-22" style="edgeStyle=orthogonalEdgeStyle;rounded=0;orthogonalLoop=1;jettySize=auto;html=1;exitX=0.25;exitY=1;exitDx=0;exitDy=0;entryX=0.5;entryY=0;entryDx=0;entryDy=0;" edge="1" parent="1" source="hddoIIIZTjqqpR7IFEJA-11" target="hddoIIIZTjqqpR7IFEJA-5">
          <mxGeometry relative="1" as="geometry" />
        </mxCell>
        <mxCell id="hddoIIIZTjqqpR7IFEJA-11" value="Split rail DC switching regulator" style="rounded=0;whiteSpace=wrap;html=1;strokeColor=default;fillColor=default;" vertex="1" parent="1">
          <mxGeometry x="87.5" y="280" width="105" height="65" as="geometry" />
        </mxCell>
        <mxCell id="hddoIIIZTjqqpR7IFEJA-17" style="edgeStyle=orthogonalEdgeStyle;rounded=0;orthogonalLoop=1;jettySize=auto;html=1;exitX=0;exitY=0.5;exitDx=0;exitDy=0;entryX=1;entryY=0.5;entryDx=0;entryDy=0;" edge="1" parent="1" source="hddoIIIZTjqqpR7IFEJA-12" target="hddoIIIZTjqqpR7IFEJA-11">
          <mxGeometry relative="1" as="geometry" />
        </mxCell>
        <mxCell id="hddoIIIZTjqqpR7IFEJA-23" style="edgeStyle=orthogonalEdgeStyle;rounded=0;orthogonalLoop=1;jettySize=auto;html=1;exitX=0.5;exitY=1;exitDx=0;exitDy=0;entryX=0.5;entryY=0;entryDx=0;entryDy=0;" edge="1" parent="1" source="hddoIIIZTjqqpR7IFEJA-12" target="hddoIIIZTjqqpR7IFEJA-15">
          <mxGeometry relative="1" as="geometry" />
        </mxCell>
        <mxCell id="hddoIIIZTjqqpR7IFEJA-12" value="&lt;div&gt;12V to 3.3V &lt;br&gt;&lt;/div&gt;&lt;div&gt;regulator&lt;/div&gt;" style="rounded=0;whiteSpace=wrap;html=1;strokeColor=default;fillColor=default;" vertex="1" parent="1">
          <mxGeometry x="212.5" y="280" width="95" height="65" as="geometry" />
        </mxCell>
        <mxCell id="hddoIIIZTjqqpR7IFEJA-26" style="edgeStyle=orthogonalEdgeStyle;rounded=0;orthogonalLoop=1;jettySize=auto;html=1;exitX=0.5;exitY=1;exitDx=0;exitDy=0;entryX=0.75;entryY=1;entryDx=0;entryDy=0;endArrow=none;endFill=0;" edge="1" parent="1" source="hddoIIIZTjqqpR7IFEJA-15" target="hddoIIIZTjqqpR7IFEJA-4">
          <mxGeometry relative="1" as="geometry" />
        </mxCell>
        <mxCell id="hddoIIIZTjqqpR7IFEJA-15" value="&lt;div&gt;Vcc &lt;br&gt;&lt;/div&gt;&lt;div&gt;(3.3V)&lt;/div&gt;" style="whiteSpace=wrap;html=1;aspect=fixed;strokeColor=default;fillColor=default;" vertex="1" parent="1">
          <mxGeometry x="237.5" y="360" width="45" height="45" as="geometry" />
        </mxCell>
        <mxCell id="hddoIIIZTjqqpR7IFEJA-16" value="Power supply" style="text;html=1;align=center;verticalAlign=middle;resizable=0;points=[];autosize=1;strokeColor=none;fillColor=none;" vertex="1" parent="1">
          <mxGeometry x="60" y="230" width="100" height="30" as="geometry" />
        </mxCell>
        <mxCell id="hddoIIIZTjqqpR7IFEJA-30" value="" style="endArrow=classic;html=1;rounded=1;targetPerimeterSpacing=0;entryX=0.5;entryY=0;entryDx=0;entryDy=0;exitX=0.75;exitY=0;exitDx=0;exitDy=0;" edge="1" parent="1" source="hddoIIIZTjqqpR7IFEJA-4" target="hddoIIIZTjqqpR7IFEJA-12">
          <mxGeometry width="50" height="50" relative="1" as="geometry">
            <mxPoint x="282.5" y="310" as="sourcePoint" />
            <mxPoint x="332.5" y="260" as="targetPoint" />
          </mxGeometry>
        </mxCell>
        <mxCell id="hddoIIIZTjqqpR7IFEJA-43" style="edgeStyle=orthogonalEdgeStyle;rounded=1;orthogonalLoop=1;jettySize=auto;html=1;exitX=0.151;exitY=0.012;exitDx=0;exitDy=0;entryX=0.25;entryY=0;entryDx=0;entryDy=0;targetPerimeterSpacing=0;exitPerimeter=0;" edge="1" parent="1" source="hddoIIIZTjqqpR7IFEJA-32" target="hddoIIIZTjqqpR7IFEJA-40">
          <mxGeometry relative="1" as="geometry">
            <Array as="points">
              <mxPoint x="110" y="490" />
              <mxPoint x="119" y="490" />
            </Array>
          </mxGeometry>
        </mxCell>
        <mxCell id="hddoIIIZTjqqpR7IFEJA-32" value="" style="rounded=0;whiteSpace=wrap;html=1;strokeColor=default;fillColor=default;" vertex="1" parent="1">
          <mxGeometry x="72.5" y="475" width="250" height="130" as="geometry" />
        </mxCell>
        <mxCell id="hddoIIIZTjqqpR7IFEJA-34" style="edgeStyle=orthogonalEdgeStyle;rounded=1;orthogonalLoop=1;jettySize=auto;html=1;exitX=0.25;exitY=1;exitDx=0;exitDy=0;entryX=0.25;entryY=0;entryDx=0;entryDy=0;targetPerimeterSpacing=0;endArrow=none;endFill=0;" edge="1" parent="1">
          <mxGeometry relative="1" as="geometry">
            <mxPoint x="109.71000000000001" y="420" as="sourcePoint" />
            <mxPoint x="109.71000000000001" y="475" as="targetPoint" />
          </mxGeometry>
        </mxCell>
        <mxCell id="hddoIIIZTjqqpR7IFEJA-35" style="edgeStyle=orthogonalEdgeStyle;rounded=1;orthogonalLoop=1;jettySize=auto;html=1;exitX=0.25;exitY=1;exitDx=0;exitDy=0;entryX=0.25;entryY=0;entryDx=0;entryDy=0;targetPerimeterSpacing=0;endArrow=none;endFill=0;" edge="1" parent="1">
          <mxGeometry relative="1" as="geometry">
            <mxPoint x="169.86000000000004" y="420" as="sourcePoint" />
            <mxPoint x="169.86000000000004" y="475" as="targetPoint" />
          </mxGeometry>
        </mxCell>
        <mxCell id="hddoIIIZTjqqpR7IFEJA-36" style="edgeStyle=orthogonalEdgeStyle;rounded=1;orthogonalLoop=1;jettySize=auto;html=1;exitX=0.25;exitY=1;exitDx=0;exitDy=0;entryX=0.25;entryY=0;entryDx=0;entryDy=0;targetPerimeterSpacing=0;endArrow=none;endFill=0;" edge="1" parent="1">
          <mxGeometry relative="1" as="geometry">
            <mxPoint x="259.9" y="420" as="sourcePoint" />
            <mxPoint x="259.9" y="475" as="targetPoint" />
            <Array as="points">
              <mxPoint x="260.19" y="460" />
              <mxPoint x="260.19" y="460" />
            </Array>
          </mxGeometry>
        </mxCell>
        <mxCell id="hddoIIIZTjqqpR7IFEJA-38" value="" style="rounded=0;whiteSpace=wrap;html=1;strokeColor=default;fillColor=default;" vertex="1" parent="1">
          <mxGeometry x="342.5" y="475" width="137.5" height="130" as="geometry" />
        </mxCell>
        <mxCell id="hddoIIIZTjqqpR7IFEJA-39" value="Multiplying DAC (8bit)" style="rounded=0;whiteSpace=wrap;html=1;strokeColor=default;fillColor=default;" vertex="1" parent="1">
          <mxGeometry x="218.75" y="500" width="82.5" height="80" as="geometry" />
        </mxCell>
        <mxCell id="hddoIIIZTjqqpR7IFEJA-40" value="Amplifier" style="rounded=0;whiteSpace=wrap;html=1;strokeColor=default;fillColor=default;" vertex="1" parent="1">
          <mxGeometry x="98.75" y="500" width="82.5" height="80" as="geometry" />
        </mxCell>
        <mxCell id="hddoIIIZTjqqpR7IFEJA-42" value="" style="endArrow=classic;html=1;rounded=1;targetPerimeterSpacing=0;" edge="1" parent="1" target="hddoIIIZTjqqpR7IFEJA-32">
          <mxGeometry width="50" height="50" relative="1" as="geometry">
            <mxPoint x="110" y="475" as="sourcePoint" />
            <mxPoint x="160" y="425" as="targetPoint" />
          </mxGeometry>
        </mxCell>
        <mxCell id="hddoIIIZTjqqpR7IFEJA-47" style="edgeStyle=orthogonalEdgeStyle;rounded=1;orthogonalLoop=1;jettySize=auto;html=1;targetPerimeterSpacing=0;entryX=0.25;entryY=0;entryDx=0;entryDy=0;exitX=0.149;exitY=0.002;exitDx=0;exitDy=0;exitPerimeter=0;" edge="1" parent="1" source="hddoIIIZTjqqpR7IFEJA-32" target="hddoIIIZTjqqpR7IFEJA-40">
          <mxGeometry relative="1" as="geometry">
            <mxPoint x="257.5" y="530" as="targetPoint" />
            <mxPoint x="110" y="480" as="sourcePoint" />
            <Array as="points">
              <mxPoint x="110" y="490" />
              <mxPoint x="120" y="490" />
              <mxPoint x="120" y="500" />
            </Array>
          </mxGeometry>
        </mxCell>
        <mxCell id="hddoIIIZTjqqpR7IFEJA-49" style="edgeStyle=orthogonalEdgeStyle;rounded=1;orthogonalLoop=1;jettySize=auto;html=1;targetPerimeterSpacing=0;entryX=0.25;entryY=0;entryDx=0;entryDy=0;exitX=0.389;exitY=-0.001;exitDx=0;exitDy=0;exitPerimeter=0;" edge="1" parent="1" source="hddoIIIZTjqqpR7IFEJA-32" target="hddoIIIZTjqqpR7IFEJA-39">
          <mxGeometry relative="1" as="geometry">
            <mxPoint x="180.625" y="500" as="targetPoint" />
            <mxPoint x="170" y="480" as="sourcePoint" />
            <Array as="points">
              <mxPoint x="170" y="490" />
              <mxPoint x="239" y="490" />
            </Array>
          </mxGeometry>
        </mxCell>
        <mxCell id="hddoIIIZTjqqpR7IFEJA-51" value="" style="endArrow=classic;html=1;rounded=1;targetPerimeterSpacing=0;exitX=0.75;exitY=0;exitDx=0;exitDy=0;entryX=0.5;entryY=0;entryDx=0;entryDy=0;" edge="1" parent="1">
          <mxGeometry width="50" height="50" relative="1" as="geometry">
            <mxPoint x="259.9000000000001" y="475" as="sourcePoint" />
            <mxPoint x="259.9" y="500" as="targetPoint" />
          </mxGeometry>
        </mxCell>
        <mxCell id="hddoIIIZTjqqpR7IFEJA-53" value="" style="rounded=0;whiteSpace=wrap;html=1;strokeColor=default;fillColor=default;" vertex="1" parent="1">
          <mxGeometry x="500" y="370" width="130" height="235" as="geometry" />
        </mxCell>
        <mxCell id="hddoIIIZTjqqpR7IFEJA-54" value="LCD" style="whiteSpace=wrap;html=1;aspect=fixed;strokeColor=default;fillColor=default;" vertex="1" parent="1">
          <mxGeometry x="520" y="500" width="90" height="90" as="geometry" />
        </mxCell>
        <mxCell id="hddoIIIZTjqqpR7IFEJA-55" value="Rotary encoder &amp;amp; switch" style="whiteSpace=wrap;html=1;aspect=fixed;strokeColor=default;fillColor=default;" vertex="1" parent="1">
          <mxGeometry x="520" y="390" width="90" height="90" as="geometry" />
        </mxCell>
        <mxCell id="hddoIIIZTjqqpR7IFEJA-57" value="AWG core" style="whiteSpace=wrap;html=1;aspect=fixed;strokeColor=default;fillColor=default;" vertex="1" parent="1">
          <mxGeometry x="360" y="490" width="40" height="40" as="geometry" />
        </mxCell>
        <mxCell id="hddoIIIZTjqqpR7IFEJA-59" value="HMI core" style="whiteSpace=wrap;html=1;aspect=fixed;strokeColor=default;fillColor=default;" vertex="1" parent="1">
          <mxGeometry x="420" y="490" width="40" height="40" as="geometry" />
        </mxCell>
        <mxCell id="hddoIIIZTjqqpR7IFEJA-61" value="USB interface" style="rounded=0;whiteSpace=wrap;html=1;strokeColor=default;fillColor=default;" vertex="1" parent="1">
          <mxGeometry x="360" y="550" width="100" height="40" as="geometry" />
        </mxCell>
        <mxCell id="hddoIIIZTjqqpR7IFEJA-62" style="edgeStyle=orthogonalEdgeStyle;rounded=1;orthogonalLoop=1;jettySize=auto;html=1;exitX=0.75;exitY=1;exitDx=0;exitDy=0;targetPerimeterSpacing=0;" edge="1" parent="1" source="hddoIIIZTjqqpR7IFEJA-4" target="hddoIIIZTjqqpR7IFEJA-53">
          <mxGeometry relative="1" as="geometry">
            <mxPoint x="425.25" y="490" as="targetPoint" />
            <mxPoint x="274" y="435" as="sourcePoint" />
            <Array as="points">
              <mxPoint x="260" y="450" />
            </Array>
          </mxGeometry>
        </mxCell>
        <mxCell id="hddoIIIZTjqqpR7IFEJA-63" value="Analog out" style="text;html=1;align=center;verticalAlign=middle;resizable=0;points=[];autosize=1;strokeColor=none;fillColor=none;" vertex="1" parent="1">
          <mxGeometry x="67.5" y="605" width="80" height="30" as="geometry" />
        </mxCell>
        <mxCell id="hddoIIIZTjqqpR7IFEJA-64" value="uC" style="text;html=1;align=center;verticalAlign=middle;resizable=0;points=[];autosize=1;strokeColor=none;fillColor=none;" vertex="1" parent="1">
          <mxGeometry x="342.5" y="605" width="40" height="30" as="geometry" />
        </mxCell>
        <mxCell id="hddoIIIZTjqqpR7IFEJA-65" value="HMI" style="text;html=1;align=center;verticalAlign=middle;resizable=0;points=[];autosize=1;strokeColor=none;fillColor=none;" vertex="1" parent="1">
          <mxGeometry x="500" y="605" width="40" height="30" as="geometry" />
        </mxCell>
      </root>
    </mxGraphModel>
  </diagram>
</mxfile>
